<?xml version="1.0" encoding="utf-8"?>
<!-- Generator: Adobe Illustrator 27.6.1, SVG Export Plug-In . SVG Version: 6.00 Build 0)  -->
<svg version="1.1" id="圖層_1" xmlns="http://www.w3.org/2000/svg" xmlns:xlink="http://www.w3.org/1999/xlink" x="0px" y="0px"
	 viewBox="0 0 689.27 203.12" style="enable-background:new 0 0 689.27 203.12;" xml:space="preserve">
<style type="text/css">
	.st0{fill:url(#SVGID_1_);}
	.st1{fill:url(#SVGID_00000053533633352715627970000002709792140307946118_);}
	.st2{fill:url(#SVGID_00000157996026272800122500000002511696626500170161_);}
	.st3{fill:url(#SVGID_00000092417929061661825690000002809752021376617149_);}
	.st4{fill:#00B7FF;}
	.st5{fill:#F7FF55;}
</style>
<g>
	<g>
		<g>
			<path d="M63.53,70.74v25.17l10.03-5.92v17.77l-10.03,5.92v64.48H28.49l-5.26-15.63h10.69v-31.58l-10.86,6.25v-17.93l10.86-6.09
				V70.74H23.23V55.12h10.69V33.24h29.61v21.88h10.2v15.62H63.53z M77.35,178.16V61.2h30.6v-27.8h29.28v27.8h30.1v116.96H77.35z
				 M107.94,77.16h-7.73v34.21h7.73V77.16z M107.94,127.17h-7.73v35.7h7.73V127.17z M144.79,77.16h-7.57v34.21h7.57V77.16z
				 M144.79,127.17h-7.57v35.7h7.57V127.17z"/>
			<path d="M63.53,33.24v21.88h10.2v15.62h-10.2v25.17l10.03-5.92v17.77l-10.03,5.92v64.48H28.49l-5.26-15.63h10.69v-31.58
				l-10.86,6.25v-17.93l10.86-6.09V70.74H23.23V55.12h10.69V33.24H63.53 M137.22,33.41v27.8h30.1v116.96H77.35V61.2h30.6v-27.8
				H137.22 M137.22,111.37h7.57V77.16h-7.57V111.37 M100.21,111.37h7.73V77.16h-7.73V111.37 M137.22,162.86h7.57v-35.7h-7.57V162.86
				 M100.21,162.86h7.73v-35.7h-7.73V162.86 M63.53,27.02H33.92c-3.44,0-6.22,2.79-6.22,6.22V48.9h-4.47
				c-3.44,0-6.22,2.79-6.22,6.22v15.62c0,3.44,2.78,6.22,6.22,6.22h4.47v32.58l-7.68,4.3c-1.96,1.1-3.18,3.18-3.18,5.43v17.93
				c0,2.22,1.18,4.27,3.11,5.39c0.96,0.56,2.04,0.84,3.11,0.84c1.07,0,2.14-0.28,3.1-0.83l1.53-0.88v14.6h-4.47
				c-2,0-3.88,0.96-5.05,2.59c-1.17,1.63-1.48,3.72-0.84,5.61l5.26,15.63c0.85,2.53,3.22,4.23,5.9,4.23h35.04
				c3.44,0,6.22-2.79,6.22-6.22v-60.93l1.38-0.81v61.74c0,3.44,2.78,6.22,6.22,6.22h89.98c3.44,0,6.22-2.79,6.22-6.22V61.2
				c0-3.44-2.78-6.22-6.22-6.22h-23.88V33.41c0-3.44-2.78-6.22-6.22-6.22h-29.28c-3.44,0-6.22,2.79-6.22,6.22v21.58H79.95
				c-0.07-3.37-2.83-6.08-6.22-6.08h-3.98V33.24C69.75,29.81,66.97,27.02,63.53,27.02L63.53,27.02z M69.75,76.96h1.38v7.3
				c-0.25,0.11-0.49,0.23-0.73,0.37l-0.65,0.38V76.96L69.75,76.96z"/>
		</g>
		<g>
			<path d="M263.26,52.81h-10.2l3.62,9.21h-26.15l-3.62-9.21h-2.96l-4.44,9.21h-31.25l14.47-28.29h31.09L231.18,39h32.08V52.81z
				 M331.52,178.65h-37.01l-1.81-9.54l-7.9,9.54h-22.04l3.62-4.44l-73.86,4.44V165l20.4-1.15v-5.76h-18.75v-11.84h18.75v-5.76
				h-15.63v-11.02h15.63v-5.76h-18.75v-11.19h18.75v-5.1h-21.38V92.79h86.36l-0.5-3.29h-17.77l-3.13-6.91l-4.28,6.91h-22.7
				l2.47-3.78h-6.41l-3.13-6.25l-6.09,10.03h-24.34l14.31-24.51h24.67l-3.78,6.41h8.72l2.14,4.11l6.25-10.53h22.21l-3.62,6.41h6.08
				l7.4,14.31l-3.78-20.73h29.44l5.76,27.8h30.1v14.64h-27.31l2.14,9.54l3.78-4.77h22.04l-21.71,27.14l4.6,23.69h18.09
				L331.52,178.65z M242.53,107.43h-5.59v54.61l5.59-0.16V107.43z M323.79,52.81l4.11,9.21h-26.81l-3.78-9.21h-3.29l-4.77,9.21
				H259.8l13.49-28.29h30.27l-2.8,5.26h36.19v13.82H323.79z M280.53,107.43h-14.31v5.26h14.31v10.69h-14.31v5.26h13.16v10.36h-13.16
				v5.1h14.8v11.19h-14.8v5.1l12.17-0.82l9.87-12.17L280.53,107.43z M312.6,89.17l-4.11-21.71h22.53l4.28,21.71H312.6z"/>
			<path d="M303.55,33.73h0.03 M303.55,33.73l-2.8,5.26h36.19v13.82h-13.16l4.11,9.21h-26.81l-3.78-9.21h-3.29l-4.77,9.21H259.8
				l13.49-28.29H303.55 M233.81,33.73h0.03 M233.81,33.73L231.18,39h32.08v13.82h-10.2l3.62,9.21h-26.15l-3.62-9.21h-2.96
				l-4.44,9.21h-31.25l14.47-28.29H233.81 M302.08,64.99l5.76,27.8h30.1v14.64h-27.31l2.14,9.54l3.78-4.77h22.04l-21.71,27.14
				l4.6,23.69h18.09l-8.06,15.63h-37.01l-1.81-9.54l-7.9,9.54h-22.04l3.62-4.44l-73.86,4.44V165l20.4-1.15v-5.76h-18.75v-11.84
				h18.75v-5.76h-15.63v-11.02h15.63v-5.76h-18.75v-11.19h18.75v-5.1h-21.38V92.79h86.36l-0.5-3.29h-17.77l-3.13-6.91l-4.28,6.91
				h-22.7l2.47-3.78h-6.41l-3.13-6.25l-6.09,10.03h-24.34l14.31-24.51h24.67l-3.78,6.41h8.72l2.14,4.11l6.25-10.53h22.21l-3.62,6.41
				h6.08l7.4,14.31l-3.78-20.73H302.08 M266.22,112.69h14.31v10.69h-14.31v5.26h13.16v10.36h-13.16v5.1h14.8v11.19h-14.8v5.1
				l12.17-0.82l9.87-12.17l-7.73-39.97h-14.31V112.69 M236.94,162.04l5.59-0.16v-54.45h-5.59V162.04 M266.54,64.99h0.03
				 M231.01,64.99h0.03 M331.02,67.45l4.28,21.71h-22.7l-4.11-21.71H331.02 M338.59,112.2h0.03 M303.59,27.51h-0.03h-30.27
				c-2.4,0-4.58,1.38-5.62,3.54l-1.24,2.59c-0.93-0.55-2.02-0.87-3.18-0.87h-23.28c-0.46-2.98-3.02-5.26-6.13-5.26h-0.03h-31.09
				c-2.34,0-4.47,1.31-5.54,3.39l-14.47,28.29c-0.99,1.93-0.9,4.23,0.23,6.08c1.13,1.85,3.14,2.97,5.31,2.97h8.99l-10.58,18.11
				c-0.7,1.19-0.97,2.56-0.8,3.89c-0.35,0.77-0.54,1.63-0.54,2.53v14.64c0,2.1,1.04,3.95,2.63,5.08c0,0.01,0,0.01,0,0.02v11.19
				c0,2.31,1.26,4.33,3.14,5.4c-0.01,0.12-0.01,0.23-0.01,0.35v11.02c0,0.12,0,0.24,0.01,0.35c-1.87,1.07-3.14,3.09-3.14,5.4v11.84
				c0,0.8,0.15,1.57,0.43,2.27c-1.27,1.14-2.07,2.8-2.07,4.64v13.65c0,1.71,0.71,3.35,1.96,4.53c1.16,1.09,2.68,1.69,4.26,1.69
				c0.12,0,0.25,0,0.37-0.01l64.11-3.85c0.04,0.11,0.09,0.21,0.14,0.31c1.03,2.17,3.22,3.55,5.62,3.55h22.04
				c1.85,0,3.61-0.83,4.79-2.25l0.06-0.07c1.15,1.43,2.91,2.33,4.85,2.33h37.01c2.33,0,4.46-1.3,5.53-3.37l8.06-15.63
				c0.99-1.93,0.91-4.24-0.22-6.09c-1.13-1.85-3.14-2.98-5.31-2.98h-12.97l-3.08-15.83l19.73-24.67c0.97-1.1,1.56-2.53,1.56-4.11
				c0-1.17-0.32-2.26-0.87-3.19c0.13-0.51,0.2-1.04,0.2-1.58V92.79c0-2.18-1.13-4.11-2.83-5.22l-4.2-21.32
				c-0.36-1.82-1.49-3.32-3.01-4.19c0-0.87-0.17-1.75-0.54-2.57l-0.2-0.46h3.57c3.44,0,6.22-2.79,6.22-6.22V39
				c0-3.44-2.78-6.22-6.22-6.22h-27.23C309.26,29.8,306.7,27.51,303.59,27.51L303.59,27.51z"/>
		</g>
		<g>
			<path d="M414.62,55.61h-10.2v19.41h15.63v14.97h-15.63v88h-28.13v-88h-16.45V75.02h16.45V55.61h-14.8V40.15h29.11l2.14-6.91
				h28.62L414.62,55.61z M360.5,166.65l1.64-69.75h11.02l-1.65,69.75H360.5z M418.4,177.99v-11.35h-8.72l-2.31-69.75h11.02
				l2.14,65.47h26.97V145.1h-22.53V129.3h22.53v-16.94h-25.33V96.9h51.65l1.81-5.1h29.94l-6.42,20.56h-21.88v16.94h23.19v15.79
				h-23.19v17.27h28.95v15.63H418.4z M423.01,87.69V35.05h78.3v52.64H423.01z M473.18,50.68h-22.37V71.9h22.37V50.68z"/>
			<path d="M421.37,33.24l-6.75,22.37h-10.2v19.41h15.63v14.97h-15.63v88h-28.13v-88h-16.45V75.02h16.45V55.61h-14.8V40.15h29.11
				l2.14-6.91H421.37 M501.31,35.05v52.64h-78.3V35.05H501.31 M450.81,71.9h22.37V50.68h-22.37V71.9 M505.59,91.8h0.03 M505.59,91.8
				l-6.42,20.56h-21.88v16.94h23.19v15.79h-23.19v17.27h28.95v15.63H418.4v-11.35h-8.72l-2.31-69.75h11.02l2.14,65.47h26.97V145.1
				h-22.53V129.3h22.53v-16.94h-25.33V96.9h51.65l1.81-5.1H505.59 M373.17,96.9l-1.65,69.75H360.5l1.64-69.75H373.17 M421.37,27.02
				h-28.62c-2.73,0-5.14,1.78-5.94,4.38l-0.78,2.53h-24.53c-3.44,0-6.22,2.79-6.22,6.22v15.46c0,3.44,2.78,6.22,6.22,6.22h8.58v6.97
				h-10.23c-3.44,0-6.22,2.79-6.22,6.22v14.97c0,2.08,1.02,3.92,2.59,5.05c-0.17,0.54-0.27,1.12-0.28,1.71l-1.64,69.75
				c-0.04,1.67,0.6,3.29,1.77,4.49s2.78,1.87,4.45,1.87h9.57v5.13c0,3.44,2.78,6.22,6.22,6.22h28.13c3.44,0,6.22-2.79,6.22-6.22
				v-5.13h1.54v5.13c0,3.44,2.78,6.22,6.22,6.22h87.84c3.44,0,6.22-2.79,6.22-6.22v-15.63c0-3.44-2.79-6.22-6.22-6.22h-22.73v-4.83
				h16.97c3.44,0,6.22-2.79,6.22-6.22V129.3c0-3.44-2.78-6.22-6.22-6.22h-16.97v-4.5h15.65c2.72,0,5.13-1.77,5.94-4.37l6.29-20.16
				c0.27-0.7,0.42-1.46,0.42-2.25c0-2.77-1.8-5.11-4.29-5.92V35.05c0-3.44-2.78-6.22-6.22-6.22h-75.56
				C424.6,27.68,423.02,27.02,421.37,27.02L421.37,27.02z M457.03,56.9h9.93v8.78h-9.93V56.9L457.03,56.9z M410.64,61.83h3.98
				c0.76,0,1.49-0.14,2.17-0.39v7.36h-6.15V61.83L410.64,61.83z M505.59,98.02h0.03H505.59L505.59,98.02z M425.34,118.58h15.96v4.5
				h-15.81L425.34,118.58L425.34,118.58z M426.4,151.32h14.89v4.83h-14.73L426.4,151.32L426.4,151.32z"/>
		</g>
		<g>
			<path d="M669.45,178.82h-41.12L611.71,72.55h-85.37V55.61h82.41l-3.45-22.87h30.6l3.29,22.87h33.88v16.94h-30.92l14.14,89.81
				h18.75L669.45,178.82z M528.64,175.36v-15.96l26.81-2.63v-48.85h-25.17V91.63h81.09v16.29h-23.36v45.4l32.07-3.45v16.28
				L528.64,175.36z M645.76,52.16l-3.45-18.09h22.7l3.62,18.09H645.76z"/>
			<path d="M635.89,32.75l3.29,22.87h33.88v16.94h-30.92l14.14,89.81h18.75l-5.59,16.45h-41.12L611.71,72.55h-85.37V55.61h82.41
				l-3.45-22.87H635.89 M665.01,34.06l3.62,18.09h-22.87l-3.45-18.09H665.01 M611.39,91.63v16.29h-23.36v45.4l32.07-3.45v16.28
				l-91.46,9.21v-15.96l26.81-2.63v-48.85h-25.17V91.63H611.39 M635.89,26.53h-30.6c-1.81,0-3.53,0.79-4.72,2.16
				c-1.18,1.37-1.71,3.19-1.44,4.99l2.37,15.72h-75.18c-3.44,0-6.22,2.79-6.22,6.22v16.94c0,3.44,2.78,6.22,6.22,6.22h80.05
				l1.04,6.64h-77.14c-3.44,0-6.22,2.79-6.22,6.22v16.29c0,3.44,2.78,6.22,6.22,6.22h18.95v36.99l-21.2,2.08
				c-3.19,0.31-5.61,2.99-5.61,6.19v15.96c0,1.76,0.74,3.43,2.05,4.61c1.15,1.04,2.64,1.61,4.17,1.61c0.21,0,0.42-0.01,0.62-0.03
				l91.46-9.21c0.1-0.01,0.19-0.02,0.29-0.04l1.17,7.47c0.47,3.03,3.08,5.26,6.15,5.26h41.12c2.66,0,5.03-1.7,5.89-4.22l5.59-16.45
				c0.65-1.9,0.34-3.99-0.83-5.62c-1.17-1.63-3.05-2.6-5.06-2.6h-13.44l-12.19-77.37h23.65c3.44,0,6.22-2.79,6.22-6.22V55.61
				c0-2.96-2.07-5.44-4.84-6.07l-3.34-16.7c-0.58-2.91-3.13-5-6.1-5h-22.7c-0.74,0-1.46,0.13-2.14,0.38
				C639.05,27.17,637.54,26.53,635.89,26.53L635.89,26.53z M594.25,114.14h17.14c0.18,0,0.36-0.01,0.53-0.02l4.67,29.87l-22.34,2.41
				V114.14L594.25,114.14z"/>
		</g>
	</g>
	<g>
		<g>
			<linearGradient id="SVGID_1_" gradientUnits="userSpaceOnUse" x1="86.3535" y1="22.2251" x2="86.3535" y2="241.3558">
				<stop  offset="0" style="stop-color:#FFFFFF"/>
				<stop  offset="1" style="stop-color:#F7FF55"/>
			</linearGradient>
			<path class="st0" d="M54.69,62.3v25.17l10.03-5.92v17.77l-10.03,5.92v64.48H19.65l-5.26-15.63h10.69V122.5l-10.86,6.25v-17.93
				l10.86-6.09V62.3H14.39V46.67h10.69V24.79h29.61v21.88h10.2V62.3H54.69z M68.51,169.71V52.76h30.6v-27.8h29.28v27.8h30.1v116.96
				H68.51z M99.1,68.71h-7.73v34.21h7.73V68.71z M99.1,118.72h-7.73v35.7h7.73V118.72z M135.95,68.71h-7.57v34.21h7.57V68.71z
				 M135.95,118.72h-7.57v35.7h7.57V118.72z"/>
			<path d="M54.69,24.79v21.88h10.2V62.3h-10.2v25.17l10.03-5.92v17.77l-10.03,5.92v64.48H19.65l-5.26-15.63h10.69V122.5
				l-10.86,6.25v-17.93l10.86-6.09V62.3H14.39V46.67h10.69V24.79H54.69 M128.38,24.96v27.8h30.1v116.96H68.51V52.76h30.6v-27.8
				H128.38 M128.38,102.93h7.57V68.71h-7.57V102.93 M91.37,102.93h7.73V68.71h-7.73V102.93 M128.38,154.41h7.57v-35.7h-7.57V154.41
				 M91.37,154.41h7.73v-35.7h-7.73V154.41 M54.69,18.57H25.08c-3.44,0-6.22,2.79-6.22,6.22v15.66h-4.47
				c-3.44,0-6.22,2.79-6.22,6.22V62.3c0,3.44,2.78,6.22,6.22,6.22h4.47v32.58l-7.68,4.3C9.22,106.5,8,108.57,8,110.82v17.93
				c0,2.22,1.18,4.27,3.11,5.39c0.96,0.56,2.04,0.84,3.11,0.84c1.07,0,2.14-0.28,3.1-0.83l1.53-0.88v14.6h-4.47
				c-2,0-3.88,0.96-5.05,2.59c-1.17,1.63-1.48,3.72-0.84,5.61l5.26,15.63c0.85,2.53,3.22,4.23,5.9,4.23h35.04
				c3.44,0,6.22-2.79,6.22-6.22v-60.93l1.38-0.81v61.74c0,3.44,2.78,6.22,6.22,6.22h89.98c3.44,0,6.22-2.79,6.22-6.22V52.76
				c0-3.44-2.78-6.22-6.22-6.22H134.6V24.96c0-3.44-2.78-6.22-6.22-6.22H99.1c-3.44,0-6.22,2.79-6.22,6.22v21.58H71.11
				c-0.07-3.37-2.83-6.08-6.22-6.08h-3.98V24.79C60.91,21.36,58.13,18.57,54.69,18.57L54.69,18.57z M60.91,68.52h1.38v7.3
				c-0.25,0.11-0.49,0.23-0.73,0.37l-0.65,0.38V68.52L60.91,68.52z"/>
		</g>
		<g>
			
				<linearGradient id="SVGID_00000102532958313284156690000012518323091121216436_" gradientUnits="userSpaceOnUse" x1="255.073" y1="22.2251" x2="255.073" y2="241.3558">
				<stop  offset="0" style="stop-color:#FFFFFF"/>
				<stop  offset="1" style="stop-color:#F7FF55"/>
			</linearGradient>
			<path style="fill:url(#SVGID_00000102532958313284156690000012518323091121216436_);" d="M254.42,44.37h-10.2l3.62,9.21h-26.15
				l-3.62-9.21h-2.96l-4.44,9.21h-31.25l14.47-28.29h31.09l-2.63,5.26h32.08V44.37z M322.68,170.21h-37.01l-1.81-9.54l-7.9,9.54
				h-22.04l3.62-4.44l-73.86,4.44v-13.65l20.4-1.15v-5.76h-18.75V137.8h18.75v-5.76h-15.63v-11.02h15.63v-5.76h-18.75v-11.19h18.75
				v-5.1H182.7V84.34h86.36l-0.5-3.29h-17.77l-3.13-6.91l-4.28,6.91h-22.7l2.47-3.78h-6.41l-3.13-6.25l-6.09,10.03h-24.34
				l14.31-24.51h24.67l-3.78,6.41h8.72l2.14,4.11l6.25-10.53h22.21l-3.62,6.41h6.08l7.4,14.31l-3.78-20.73h29.44l5.76,27.8h30.1
				v14.64h-27.31l2.14,9.54l3.78-4.77h22.04l-21.71,27.14l4.6,23.69h18.09L322.68,170.21z M233.69,98.98h-5.59v54.61l5.59-0.16
				V98.98z M314.95,44.37l4.11,9.21h-26.81l-3.78-9.21h-3.29l-4.77,9.21h-29.44l13.49-28.29h30.27l-2.8,5.26h36.19v13.82H314.95z
				 M271.69,98.98h-14.31v5.26h14.31v10.69h-14.31v5.26h13.16v10.36h-13.16v5.1h14.8v11.19h-14.8v5.1l12.17-0.82l9.87-12.17
				L271.69,98.98z M303.76,80.72l-4.11-21.71h22.53l4.28,21.71H303.76z"/>
			<path d="M294.72,25.29h0.03 M294.72,25.29l-2.8,5.26h36.19v13.82h-13.16l4.11,9.21h-26.81l-3.78-9.21h-3.29l-4.77,9.21h-29.44
				l13.49-28.29H294.72 M224.97,25.29H225 M224.97,25.29l-2.63,5.26h32.08v13.82h-10.2l3.62,9.21h-26.15l-3.62-9.21h-2.96
				l-4.44,9.21h-31.25l14.47-28.29H224.97 M293.24,56.54l5.76,27.8h30.1v14.64h-27.31l2.14,9.54l3.78-4.77h22.04l-21.71,27.14
				l4.6,23.69h18.09l-8.06,15.63h-37.01l-1.81-9.54l-7.9,9.54h-22.04l3.62-4.44l-73.86,4.44v-13.65l20.4-1.15v-5.76h-18.75V137.8
				h18.75v-5.76h-15.63v-11.02h15.63v-5.76h-18.75v-11.19h18.75v-5.1H182.7V84.34h86.36l-0.5-3.29h-17.77l-3.13-6.91l-4.28,6.91
				h-22.7l2.47-3.78h-6.41l-3.13-6.25l-6.09,10.03h-24.34l14.31-24.51h24.67l-3.78,6.41h8.72l2.14,4.11l6.25-10.53h22.21l-3.62,6.41
				h6.08l7.4,14.31l-3.78-20.73H293.24 M257.38,104.24h14.31v10.69h-14.31v5.26h13.16v10.36h-13.16v5.1h14.8v11.19h-14.8v5.1
				l12.17-0.82l9.87-12.17l-7.73-39.97h-14.31V104.24 M228.1,153.59l5.59-0.16V98.98h-5.59V153.59 M257.7,56.54h0.03 M222.17,56.54
				h0.03 M322.18,59.01l4.28,21.71h-22.7l-4.11-21.71H322.18 M329.75,103.75h0.03 M294.75,19.07h-0.03h-30.27
				c-2.4,0-4.58,1.38-5.62,3.54l-1.24,2.59c-0.93-0.55-2.02-0.87-3.18-0.87h-23.28c-0.46-2.98-3.02-5.26-6.13-5.26h-0.03h-31.09
				c-2.34,0-4.47,1.31-5.54,3.39l-14.47,28.29c-0.99,1.93-0.9,4.23,0.23,6.08c1.13,1.85,3.14,2.97,5.31,2.97h8.99l-10.58,18.11
				c-0.7,1.19-0.97,2.56-0.8,3.89c-0.35,0.77-0.54,1.63-0.54,2.53v14.64c0,2.1,1.04,3.95,2.63,5.08c0,0.01,0,0.01,0,0.02v11.19
				c0,2.31,1.26,4.33,3.14,5.4c-0.01,0.12-0.01,0.23-0.01,0.35v11.02c0,0.12,0,0.24,0.01,0.35c-1.87,1.07-3.14,3.09-3.14,5.4v11.84
				c0,0.8,0.15,1.57,0.43,2.27c-1.27,1.14-2.07,2.8-2.07,4.64v13.65c0,1.71,0.71,3.35,1.96,4.53c1.16,1.09,2.68,1.69,4.26,1.69
				c0.12,0,0.25,0,0.37-0.01l64.11-3.85c0.04,0.11,0.09,0.21,0.14,0.31c1.03,2.17,3.22,3.55,5.62,3.55h22.04
				c1.85,0,3.61-0.83,4.79-2.25l0.06-0.07c1.15,1.43,2.91,2.33,4.85,2.33h37.01c2.33,0,4.46-1.3,5.53-3.37l8.06-15.63
				c0.99-1.93,0.91-4.24-0.22-6.09c-1.13-1.85-3.14-2.98-5.31-2.98h-12.97l-3.08-15.83l19.73-24.67c0.97-1.1,1.56-2.53,1.56-4.11
				c0-1.17-0.32-2.26-0.87-3.19c0.13-0.51,0.2-1.04,0.2-1.58V84.34c0-2.18-1.13-4.11-2.83-5.22l-4.2-21.32
				c-0.36-1.82-1.49-3.32-3.01-4.19c0-0.87-0.17-1.75-0.54-2.57l-0.2-0.46h3.57c3.44,0,6.22-2.79,6.22-6.22V30.55
				c0-3.44-2.78-6.22-6.22-6.22h-27.23C300.42,21.35,297.86,19.07,294.75,19.07L294.75,19.07z"/>
		</g>
		<g>
			
				<linearGradient id="SVGID_00000121261271680346214680000015827426110656510901_" gradientUnits="userSpaceOnUse" x1="424.2024" y1="22.2251" x2="424.2024" y2="241.3558">
				<stop  offset="0" style="stop-color:#FFFFFF"/>
				<stop  offset="1" style="stop-color:#F7FF55"/>
			</linearGradient>
			<path style="fill:url(#SVGID_00000121261271680346214680000015827426110656510901_);" d="M405.78,47.16h-10.2v19.41h15.63v14.97
				h-15.63v88h-28.13v-88H351V66.58h16.45V47.16h-14.8V31.7h29.11l2.14-6.91h28.62L405.78,47.16z M351.66,158.2l1.64-69.75h11.02
				l-1.65,69.75H351.66z M409.56,169.55V158.2h-8.72l-2.31-69.75h11.02l2.14,65.47h26.97v-17.27h-22.53v-15.79h22.53v-16.94h-25.33
				V88.45H465l1.81-5.1h29.94l-6.42,20.56h-21.88v16.94h23.19v15.79h-23.19v17.27h28.95v15.63H409.56z M414.17,79.24V26.6h78.3
				v52.64H414.17z M464.34,42.23h-22.37v21.22h22.37V42.23z"/>
			<path d="M412.53,24.79l-6.75,22.37h-10.2v19.41h15.63v14.97h-15.63v88h-28.13v-88H351V66.58h16.45V47.16h-14.8V31.7h29.11
				l2.14-6.91H412.53 M492.47,26.6v52.64h-78.3V26.6H492.47 M441.97,63.45h22.37V42.23h-22.37V63.45 M496.75,83.35h0.03
				 M496.75,83.35l-6.42,20.56h-21.88v16.94h23.19v15.79h-23.19v17.27h28.95v15.63h-87.84V158.2h-8.72l-2.31-69.75h11.02l2.14,65.47
				h26.97v-17.27h-22.53v-15.79h22.53v-16.94h-25.33V88.45H465l1.81-5.1H496.75 M364.33,88.45l-1.65,69.75h-11.02l1.64-69.75H364.33
				 M412.53,18.57H383.9c-2.73,0-5.14,1.78-5.94,4.38l-0.78,2.53h-24.53c-3.44,0-6.22,2.79-6.22,6.22v15.46
				c0,3.44,2.78,6.22,6.22,6.22h8.58v6.97H351c-3.44,0-6.22,2.79-6.22,6.22v14.97c0,2.08,1.02,3.92,2.59,5.05
				c-0.17,0.54-0.27,1.12-0.28,1.71l-1.64,69.75c-0.04,1.67,0.6,3.29,1.77,4.49c1.17,1.2,2.78,1.87,4.45,1.87h9.57v5.13
				c0,3.44,2.78,6.22,6.22,6.22h28.13c3.44,0,6.22-2.79,6.22-6.22v-5.13h1.54v5.13c0,3.44,2.78,6.22,6.22,6.22h87.84
				c3.44,0,6.22-2.79,6.22-6.22v-15.63c0-3.44-2.79-6.22-6.22-6.22h-22.73v-4.83h16.97c3.44,0,6.22-2.79,6.22-6.22v-15.79
				c0-3.44-2.78-6.22-6.22-6.22h-16.97v-4.5h15.65c2.72,0,5.13-1.77,5.94-4.37l6.29-20.16c0.27-0.7,0.42-1.46,0.42-2.25
				c0-2.77-1.8-5.11-4.29-5.92V26.6c0-3.44-2.78-6.22-6.22-6.22h-75.56C415.76,19.23,414.18,18.57,412.53,18.57L412.53,18.57z
				 M448.19,48.45h9.93v8.78h-9.93V48.45L448.19,48.45z M401.8,53.39h3.98c0.76,0,1.49-0.14,2.17-0.39v7.36h-6.15V53.39L401.8,53.39
				z M496.75,89.57h0.03H496.75L496.75,89.57z M416.5,110.14h15.96v4.5h-15.81L416.5,110.14L416.5,110.14z M417.57,142.87h14.89
				v4.83h-14.73L417.57,142.87L417.57,142.87z"/>
		</g>
		<g>
			
				<linearGradient id="SVGID_00000018959421895146692540000012665770081945340600_" gradientUnits="userSpaceOnUse" x1="591.8527" y1="22.2251" x2="591.8527" y2="241.3558">
				<stop  offset="0" style="stop-color:#FFFFFF"/>
				<stop  offset="1" style="stop-color:#F7FF55"/>
			</linearGradient>
			<path style="fill:url(#SVGID_00000018959421895146692540000012665770081945340600_);" d="M660.61,170.37h-41.12L602.87,64.11
				H517.5V47.16h82.41l-3.45-22.87h30.6l3.29,22.87h33.88v16.94h-30.92l14.15,89.81h18.75L660.61,170.37z M519.8,166.92v-15.96
				l26.81-2.63V99.47h-25.17V83.19h81.09v16.29h-23.36v45.4l32.07-3.45v16.28L519.8,166.92z M636.92,43.71l-3.45-18.09h22.7
				l3.62,18.09H636.92z"/>
			<path d="M627.05,24.3l3.29,22.87h33.88v16.94h-30.92l14.15,89.81h18.75l-5.59,16.45h-41.12L602.87,64.11H517.5V47.16h82.41
				l-3.45-22.87H627.05 M656.17,25.62l3.62,18.09h-22.87l-3.45-18.09H656.17 M602.55,83.19v16.29h-23.36v45.4l32.07-3.45v16.28
				l-91.46,9.21v-15.96l26.81-2.63V99.47h-25.17V83.19H602.55 M627.05,18.08h-30.6c-1.81,0-3.53,0.79-4.72,2.16
				c-1.18,1.37-1.71,3.19-1.44,4.99l2.37,15.72H517.5c-3.44,0-6.22,2.79-6.22,6.22v16.94c0,3.44,2.78,6.22,6.22,6.22h80.05
				l1.04,6.64h-77.14c-3.44,0-6.22,2.79-6.22,6.22v16.29c0,3.44,2.78,6.22,6.22,6.22h18.95v36.99l-21.2,2.08
				c-3.19,0.31-5.61,2.99-5.61,6.19v15.96c0,1.76,0.74,3.43,2.05,4.61c1.15,1.04,2.64,1.61,4.17,1.61c0.21,0,0.42-0.01,0.62-0.03
				l91.46-9.21c0.1-0.01,0.19-0.02,0.29-0.04l1.17,7.47c0.47,3.03,3.08,5.26,6.15,5.26h41.12c2.66,0,5.03-1.7,5.89-4.22l5.59-16.45
				c0.65-1.9,0.34-3.99-0.83-5.62c-1.17-1.63-3.05-2.6-5.06-2.6h-13.44l-12.19-77.37h23.65c3.44,0,6.22-2.79,6.22-6.22V47.16
				c0-2.96-2.07-5.44-4.84-6.07l-3.34-16.7c-0.58-2.91-3.13-5-6.1-5h-22.7c-0.74,0-1.46,0.13-2.14,0.38
				C630.21,18.72,628.7,18.08,627.05,18.08L627.05,18.08z M585.41,105.69h17.14c0.18,0,0.36-0.01,0.53-0.02l4.67,29.87l-22.34,2.41
				V105.69L585.41,105.69z"/>
		</g>
	</g>
	<g>
		<path class="st4" d="M107.37,102.93H86.2c-0.32,0-0.57-0.26-0.57-0.57v-33.1c0-0.32,0.26-0.57,0.57-0.57h21.17
			c0.32,0,0.57,0.26,0.57,0.57v33.1C107.94,102.67,107.69,102.93,107.37,102.93z"/>
		<path d="M104.37,104.48H89.19c-2.82,0-5.12-2.3-5.12-5.13v-27.1c0-2.83,2.3-5.13,5.12-5.13h15.17c2.82,0,5.13,2.3,5.13,5.13v27.1
			C109.5,102.18,107.19,104.48,104.37,104.48z M89.19,70.24c-1.11,0-2.01,0.91-2.01,2.02v27.1c0,1.11,0.9,2.02,2.01,2.02h15.17
			c1.11,0,2.02-0.91,2.02-2.02v-27.1c0-1.11-0.91-2.02-2.02-2.02H89.19z"/>
	</g>
	<g>
		<path class="st5" d="M142.75,102.93h-21.17c-0.32,0-0.57-0.26-0.57-0.57v-33.1c0-0.32,0.26-0.57,0.57-0.57h21.17
			c0.32,0,0.57,0.26,0.57,0.57v33.1C143.32,102.67,143.07,102.93,142.75,102.93z"/>
		<path d="M139.75,104.48h-15.17c-2.82,0-5.13-2.3-5.13-5.13v-27.1c0-2.83,2.3-5.13,5.13-5.13h15.17c2.82,0,5.13,2.3,5.13,5.13v27.1
			C144.88,102.18,142.58,104.48,139.75,104.48z M124.58,70.24c-1.11,0-2.02,0.91-2.02,2.02v27.1c0,1.11,0.91,2.02,2.02,2.02h15.17
			c1.11,0,2.02-0.91,2.02-2.02v-27.1c0-1.11-0.91-2.02-2.02-2.02H124.58z"/>
	</g>
	<g>
		<path class="st5" d="M463.9,69.96h-21.17c-0.32,0-0.57-0.26-0.57-0.57v-33.1c0-0.32,0.26-0.57,0.57-0.57h21.17
			c0.32,0,0.57,0.26,0.57,0.57v33.1C464.48,69.71,464.22,69.96,463.9,69.96z"/>
		<path d="M460.91,71.52h-15.17c-2.82,0-5.13-2.3-5.13-5.13v-27.1c0-2.83,2.3-5.13,5.13-5.13h15.17c2.82,0,5.13,2.3,5.13,5.13v27.1
			C466.03,69.22,463.73,71.52,460.91,71.52z M445.73,37.27c-1.11,0-2.02,0.91-2.02,2.02v27.1c0,1.11,0.91,2.02,2.02,2.02h15.17
			c1.11,0,2.02-0.91,2.02-2.02v-27.1c0-1.11-0.91-2.02-2.02-2.02H445.73z"/>
	</g>
	<g>
		<path class="st4" d="M121.58,118.72h21.17c0.32,0,0.57,0.26,0.57,0.57v34.55c0,0.32-0.26,0.57-0.57,0.57h-21.17
			c-0.32,0-0.57-0.26-0.57-0.57v-34.55C121.01,118.98,121.27,118.72,121.58,118.72z"/>
		<path d="M139.75,155.97h-15.17c-2.82,0-5.13-2.3-5.13-5.13v-28.55c0-2.83,2.3-5.13,5.13-5.13h15.17c2.82,0,5.13,2.3,5.13,5.13
			v28.55C144.88,153.67,142.58,155.97,139.75,155.97z M124.58,120.27c-1.11,0-2.02,0.91-2.02,2.02v28.55c0,1.11,0.91,2.02,2.02,2.02
			h15.17c1.11,0,2.02-0.91,2.02-2.02v-28.55c0-1.11-0.91-2.02-2.02-2.02H124.58z"/>
	</g>
	<g>
		<path class="st5" d="M86.2,118.72h21.17c0.32,0,0.57,0.26,0.57,0.57v34.55c0,0.32-0.26,0.57-0.57,0.57H86.2
			c-0.32,0-0.57-0.26-0.57-0.57v-34.55C85.63,118.98,85.88,118.72,86.2,118.72z"/>
		<path d="M104.37,155.97H89.19c-2.82,0-5.12-2.3-5.12-5.13v-28.55c0-2.83,2.3-5.13,5.12-5.13h15.17c2.82,0,5.13,2.3,5.13,5.13
			v28.55C109.5,153.67,107.19,155.97,104.37,155.97z M89.19,120.27c-1.11,0-2.01,0.91-2.01,2.02v28.55c0,1.11,0.9,2.02,2.01,2.02
			h15.17c1.11,0,2.02-0.91,2.02-2.02v-28.55c0-1.11-0.91-2.02-2.02-2.02H89.19z"/>
	</g>
</g>
</svg>
