<?xml version="1.0" encoding="utf-8"?>
<!-- Generator: Adobe Illustrator 24.0.3, SVG Export Plug-In . SVG Version: 6.00 Build 0)  -->
<svg version="1.1" id="圖層_1" xmlns="http://www.w3.org/2000/svg" xmlns:xlink="http://www.w3.org/1999/xlink" x="0px" y="0px"
	 viewBox="0 0 101 77" style="enable-background:new 0 0 101 77;" xml:space="preserve">
<style type="text/css">
	.st0{fill:#FFFFFF;}
</style>
<g>
	
		<image style="overflow:visible;opacity:0.5;" width="124" height="93" xlink:href="A4D8ED9AE226E618.png"  transform="matrix(1 0 0 1 -891 1144)">
	</image>
	<g>
		<g>
			<path class="st0" d="M-836.6,1180.9l-2.2-2.2c-0.4-0.4-1-0.7-1.7-0.7c-0.7,0-1.2,0.2-1.7,0.7c-0.4,0.4-0.7,1-0.7,1.7
				c0,0.7,0.2,1.2,0.7,1.7l6.3,6.3c0.5,0.5,1,0.7,1.7,0.7c0.6,0,1.2-0.2,1.7-0.7l6.3-6.3c0.4-0.4,0.7-1,0.7-1.7
				c0-0.7-0.2-1.2-0.7-1.7c-0.4-0.4-1-0.7-1.7-0.7s-1.2,0.2-1.7,0.7l-2.2,2.2v-7.7c0-0.7-0.2-1.3-0.7-1.7c-0.5-0.5-1-0.7-1.7-0.7
				c-0.7,0-1.3,0.2-1.7,0.7c-0.5,0.5-0.7,1-0.7,1.7V1180.9z M-834.2,1204.6c-3.3,0-6.5-0.6-9.4-1.9c-2.9-1.3-5.5-3-7.7-5.2
				c-2.2-2.2-3.9-4.7-5.2-7.7c-1.3-2.9-1.9-6.1-1.9-9.4c0-3.3,0.6-6.5,1.9-9.4c1.3-2.9,3-5.5,5.2-7.7c2.2-2.2,4.7-3.9,7.7-5.2
				c2.9-1.3,6.1-1.9,9.4-1.9c3.3,0,6.5,0.6,9.4,1.9c2.9,1.3,5.5,3,7.7,5.2c2.2,2.2,3.9,4.7,5.2,7.7c1.3,2.9,1.9,6.1,1.9,9.4
				c0,3.3-0.6,6.5-1.9,9.4c-1.3,2.9-3,5.5-5.2,7.7c-2.2,2.2-4.7,3.9-7.7,5.2C-827.7,1203.9-830.8,1204.6-834.2,1204.6z
				 M-834.2,1199.7c5.4,0,10-1.9,13.7-5.6c3.7-3.7,5.6-8.3,5.6-13.7c0-5.4-1.9-10-5.6-13.7c-3.7-3.7-8.3-5.6-13.7-5.6
				c-5.4,0-10,1.9-13.7,5.6c-3.7,3.7-5.6,8.3-5.6,13.7c0,5.4,1.9,10,5.6,13.7C-844.1,1197.9-839.6,1199.7-834.2,1199.7z"/>
			<path class="st0" d="M-883.5,1224v-2.2c0.4,0.3,0.8,0.6,1.3,0.8c0.5,0.2,0.9,0.2,1.4,0.2c0.3,0,0.5,0,0.7-0.1
				c0.2-0.1,0.4-0.1,0.5-0.2c0.1-0.1,0.2-0.2,0.3-0.3c0.1-0.1,0.1-0.3,0.1-0.4c0-0.2-0.1-0.4-0.2-0.5c-0.1-0.2-0.3-0.3-0.5-0.4
				c-0.2-0.1-0.4-0.3-0.7-0.4s-0.5-0.2-0.8-0.4c-0.8-0.3-1.3-0.7-1.7-1.2c-0.4-0.5-0.6-1-0.6-1.7c0-0.5,0.1-0.9,0.3-1.3
				c0.2-0.4,0.5-0.7,0.8-0.9c0.4-0.2,0.8-0.4,1.2-0.5c0.5-0.1,1-0.2,1.5-0.2c0.5,0,1,0,1.4,0.1c0.4,0.1,0.8,0.2,1.1,0.3v2
				c-0.2-0.1-0.3-0.2-0.5-0.3c-0.2-0.1-0.4-0.2-0.6-0.2c-0.2-0.1-0.4-0.1-0.6-0.1c-0.2,0-0.4,0-0.6,0c-0.3,0-0.5,0-0.7,0.1
				c-0.2,0-0.4,0.1-0.5,0.2c-0.1,0.1-0.3,0.2-0.3,0.3c-0.1,0.1-0.1,0.3-0.1,0.4c0,0.2,0,0.3,0.1,0.4c0.1,0.1,0.2,0.3,0.4,0.4
				c0.2,0.1,0.4,0.2,0.6,0.3c0.2,0.1,0.5,0.2,0.8,0.3c0.4,0.2,0.7,0.3,1.1,0.5c0.3,0.2,0.6,0.4,0.8,0.6c0.2,0.2,0.4,0.5,0.5,0.8
				c0.1,0.3,0.2,0.6,0.2,1c0,0.5-0.1,1-0.3,1.4c-0.2,0.4-0.5,0.7-0.8,0.9c-0.4,0.2-0.8,0.4-1.2,0.5c-0.5,0.1-1,0.2-1.5,0.2
				c-0.5,0-1.1,0-1.5-0.1C-882.7,1224.3-883.1,1224.2-883.5,1224z M-868.2,1224.1c-0.7,0.3-1.6,0.5-2.8,0.5c-1.5,0-2.7-0.4-3.5-1.3
				c-0.9-0.9-1.3-2.1-1.3-3.5c0-1.6,0.5-2.8,1.4-3.8c1-1,2.2-1.5,3.8-1.5c1,0,1.8,0.1,2.4,0.4v2.1c-0.7-0.4-1.4-0.6-2.2-0.6
				c-0.9,0-1.7,0.3-2.2,0.9c-0.6,0.6-0.8,1.4-0.8,2.4c0,0.9,0.3,1.7,0.8,2.3c0.5,0.6,1.3,0.8,2.2,0.8c0.9,0,1.6-0.2,2.4-0.6V1224.1z
				 M-858.2,1224.4h-2.5l-1.5-2.5c-0.1-0.2-0.2-0.4-0.3-0.5c-0.1-0.2-0.2-0.3-0.3-0.4c-0.1-0.1-0.2-0.2-0.3-0.2
				c-0.1-0.1-0.2-0.1-0.4-0.1h-0.6v3.8h-2.2v-9.8h3.5c2.4,0,3.6,0.9,3.6,2.7c0,0.3-0.1,0.7-0.2,1c-0.1,0.3-0.3,0.5-0.4,0.8
				c-0.2,0.2-0.4,0.4-0.7,0.6c-0.3,0.2-0.6,0.3-0.9,0.4v0c0.1,0,0.3,0.1,0.4,0.2c0.1,0.1,0.3,0.2,0.4,0.4c0.1,0.1,0.2,0.3,0.4,0.4
				c0.1,0.2,0.2,0.3,0.3,0.5L-858.2,1224.4z M-864.2,1216.3v2.7h1c0.5,0,0.9-0.1,1.1-0.4c0.3-0.3,0.4-0.6,0.4-1
				c0-0.9-0.5-1.3-1.5-1.3H-864.2z M-853.3,1224.6c-1.4,0-2.5-0.5-3.4-1.4c-0.9-0.9-1.3-2.1-1.3-3.6c0-1.5,0.4-2.8,1.3-3.8
				c0.9-1,2.1-1.4,3.6-1.4c1.4,0,2.5,0.5,3.4,1.4c0.9,0.9,1.3,2.1,1.3,3.6c0,1.5-0.4,2.8-1.3,3.7
				C-850.7,1224.1-851.9,1224.6-853.3,1224.6z M-853.2,1216.3c-0.8,0-1.4,0.3-1.8,0.9c-0.5,0.6-0.7,1.3-0.7,2.3c0,1,0.2,1.7,0.7,2.3
				s1.1,0.8,1.8,0.8c0.8,0,1.4-0.3,1.8-0.8c0.4-0.6,0.7-1.3,0.7-2.3c0-1-0.2-1.8-0.6-2.4C-851.9,1216.6-852.5,1216.3-853.2,1216.3z
				 M-841,1224.4h-5.8v-9.8h2.2v8h3.6V1224.4z M-833.8,1224.4h-5.8v-9.8h2.2v8h3.6V1224.4z M-828.6,1224.4v-9.8h3.5
				c3.5,0,5.2,1.6,5.2,4.8c0,1.5-0.5,2.7-1.4,3.7c-0.9,0.9-2.2,1.4-3.8,1.4H-828.6z M-826.4,1216.4v6.2h1.1c1,0,1.7-0.3,2.2-0.9
				c0.5-0.6,0.8-1.4,0.8-2.3c0-0.9-0.3-1.7-0.8-2.2c-0.5-0.5-1.3-0.8-2.3-0.8H-826.4z M-814.2,1224.6c-1.4,0-2.5-0.5-3.4-1.4
				c-0.9-0.9-1.3-2.1-1.3-3.6c0-1.5,0.4-2.8,1.3-3.8c0.9-1,2.1-1.4,3.6-1.4c1.4,0,2.5,0.5,3.4,1.4c0.9,0.9,1.3,2.1,1.3,3.6
				c0,1.5-0.4,2.8-1.3,3.7C-811.6,1224.1-812.7,1224.6-814.2,1224.6z M-814.1,1216.3c-0.8,0-1.4,0.3-1.8,0.9
				c-0.5,0.6-0.7,1.3-0.7,2.3c0,1,0.2,1.7,0.7,2.3s1.1,0.8,1.8,0.8c0.8,0,1.4-0.3,1.8-0.8c0.4-0.6,0.7-1.3,0.7-2.3
				c0-1-0.2-1.8-0.6-2.4C-812.7,1216.6-813.3,1216.3-814.1,1216.3z M-794.9,1214.6l-2.6,9.8h-2.4l-1.6-6.3c-0.1-0.3-0.1-0.7-0.2-1.1
				h0c0,0.4-0.1,0.8-0.2,1.1l-1.7,6.3h-2.5l-2.6-9.8h2.4l1.4,6.5c0.1,0.3,0.1,0.7,0.1,1.1h0c0-0.4,0.1-0.7,0.2-1.1l1.8-6.5h2.4
				l1.6,6.6c0.1,0.2,0.1,0.6,0.2,1.1h0c0-0.4,0.1-0.7,0.1-1.1l1.4-6.5H-794.9z M-784.8,1224.4h-2.2l-4-6.2c-0.2-0.4-0.4-0.6-0.5-0.8
				h0c0,0.3,0.1,0.9,0.1,1.6v5.4h-2.1v-9.8h2.4l3.9,6c0.2,0.3,0.3,0.5,0.5,0.8h0c0-0.2-0.1-0.7-0.1-1.3v-5.4h2.1V1224.4z"/>
		</g>
	</g>
</g>
<g>
	
		<image style="overflow:visible;opacity:0.5;" width="123" height="94" xlink:href="A4D8ED9AE226E619.png"  transform="matrix(1 0 0 1 -6 -9)">
	</image>
	<g>
		<g>
			<path class="st0" d="M48.1,28.5l-2.2-2.2c-0.4-0.4-1-0.7-1.7-0.7s-1.2,0.2-1.7,0.7c-0.4,0.4-0.7,1-0.7,1.7c0,0.7,0.2,1.2,0.7,1.7
				l6.3,6.3c0.5,0.5,1,0.7,1.7,0.7c0.6,0,1.2-0.2,1.7-0.7l6.3-6.3c0.4-0.4,0.7-1,0.7-1.7c0-0.7-0.2-1.2-0.7-1.7
				c-0.4-0.4-1-0.7-1.7-0.7s-1.2,0.2-1.7,0.7l-2.2,2.2v-7.7c0-0.7-0.2-1.3-0.7-1.7c-0.5-0.5-1-0.7-1.7-0.7c-0.7,0-1.3,0.2-1.7,0.7
				s-0.7,1-0.7,1.7V28.5z M50.5,52.2c-3.3,0-6.5-0.6-9.4-1.9c-2.9-1.3-5.5-3-7.7-5.2c-2.2-2.2-3.9-4.7-5.2-7.7
				c-1.3-2.9-1.9-6.1-1.9-9.4c0-3.3,0.6-6.5,1.9-9.4c1.3-2.9,3-5.5,5.2-7.7c2.2-2.2,4.7-3.9,7.7-5.2c2.9-1.3,6.1-1.9,9.4-1.9
				c3.3,0,6.5,0.6,9.4,1.9c2.9,1.3,5.5,3,7.7,5.2c2.2,2.2,3.9,4.7,5.2,7.7c1.3,2.9,1.9,6.1,1.9,9.4c0,3.3-0.6,6.5-1.9,9.4
				c-1.3,2.9-3,5.5-5.2,7.7c-2.2,2.2-4.7,3.9-7.7,5.2C57,51.5,53.8,52.2,50.5,52.2z M50.5,47.3c5.4,0,10-1.9,13.7-5.6
				C68,38,69.8,33.4,69.8,28c0-5.4-1.9-10-5.6-13.7c-3.7-3.7-8.3-5.6-13.7-5.6c-5.4,0-10,1.9-13.7,5.6C33,18,31.2,22.6,31.2,28
				c0,5.4,1.9,10,5.6,13.7C40.5,45.5,45.1,47.3,50.5,47.3z"/>
			<path class="st0" d="M1.2,71.6v-2.2C1.6,69.8,2,70,2.5,70.2c0.5,0.2,0.9,0.2,1.4,0.2c0.3,0,0.5,0,0.7-0.1
				c0.2-0.1,0.4-0.1,0.5-0.2c0.1-0.1,0.2-0.2,0.3-0.3c0.1-0.1,0.1-0.3,0.1-0.4c0-0.2-0.1-0.4-0.2-0.5c-0.1-0.2-0.3-0.3-0.5-0.4
				c-0.2-0.1-0.4-0.3-0.7-0.4C4,68,3.7,67.9,3.4,67.8c-0.8-0.3-1.3-0.7-1.7-1.2c-0.4-0.5-0.6-1-0.6-1.7c0-0.5,0.1-0.9,0.3-1.3
				c0.2-0.4,0.5-0.7,0.8-0.9c0.4-0.2,0.8-0.4,1.2-0.5C4,62.1,4.5,62,5,62c0.5,0,1,0,1.4,0.1c0.4,0.1,0.8,0.2,1.1,0.3v2
				c-0.2-0.1-0.3-0.2-0.5-0.3c-0.2-0.1-0.4-0.2-0.6-0.2c-0.2-0.1-0.4-0.1-0.6-0.1c-0.2,0-0.4,0-0.6,0c-0.3,0-0.5,0-0.7,0.1
				C4.2,63.9,4,64,3.9,64c-0.1,0.1-0.3,0.2-0.3,0.3c-0.1,0.1-0.1,0.3-0.1,0.4c0,0.2,0,0.3,0.1,0.4c0.1,0.1,0.2,0.3,0.4,0.4
				c0.2,0.1,0.4,0.2,0.6,0.3C4.8,66,5,66.1,5.3,66.3c0.4,0.2,0.7,0.3,1.1,0.5c0.3,0.2,0.6,0.4,0.8,0.6c0.2,0.2,0.4,0.5,0.5,0.8
				c0.1,0.3,0.2,0.6,0.2,1c0,0.5-0.1,1-0.3,1.4c-0.2,0.4-0.5,0.7-0.8,0.9c-0.4,0.2-0.8,0.4-1.2,0.5c-0.5,0.1-1,0.2-1.5,0.2
				c-0.5,0-1.1,0-1.5-0.1C1.9,71.9,1.5,71.8,1.2,71.6z M16.5,71.6c-0.7,0.3-1.6,0.5-2.8,0.5c-1.5,0-2.7-0.4-3.5-1.3
				c-0.9-0.9-1.3-2.1-1.3-3.5c0-1.6,0.5-2.8,1.4-3.8c1-1,2.2-1.5,3.8-1.5c1,0,1.8,0.1,2.4,0.4v2.1c-0.7-0.4-1.4-0.6-2.2-0.6
				c-0.9,0-1.7,0.3-2.2,0.9c-0.6,0.6-0.8,1.4-0.8,2.4c0,0.9,0.3,1.7,0.8,2.3c0.5,0.6,1.3,0.8,2.2,0.8c0.9,0,1.6-0.2,2.4-0.6V71.6z
				 M26.4,72h-2.5l-1.5-2.5c-0.1-0.2-0.2-0.4-0.3-0.5c-0.1-0.2-0.2-0.3-0.3-0.4c-0.1-0.1-0.2-0.2-0.3-0.2c-0.1-0.1-0.2-0.1-0.4-0.1
				h-0.6V72h-2.2v-9.8h3.5c2.4,0,3.6,0.9,3.6,2.7c0,0.3-0.1,0.7-0.2,1c-0.1,0.3-0.3,0.5-0.4,0.8c-0.2,0.2-0.4,0.4-0.7,0.6
				c-0.3,0.2-0.6,0.3-0.9,0.4v0c0.1,0,0.3,0.1,0.4,0.2c0.1,0.1,0.3,0.2,0.4,0.4c0.1,0.1,0.2,0.3,0.4,0.4c0.1,0.2,0.2,0.3,0.3,0.5
				L26.4,72z M20.4,63.8v2.7h1c0.5,0,0.9-0.1,1.1-0.4c0.3-0.3,0.4-0.6,0.4-1c0-0.9-0.5-1.3-1.5-1.3H20.4z M31.4,72.2
				c-1.4,0-2.5-0.5-3.4-1.4c-0.9-0.9-1.3-2.1-1.3-3.6c0-1.5,0.4-2.8,1.3-3.8c0.9-1,2.1-1.4,3.6-1.4c1.4,0,2.5,0.5,3.4,1.4
				c0.9,0.9,1.3,2.1,1.3,3.6c0,1.5-0.4,2.8-1.3,3.7C34,71.7,32.8,72.2,31.4,72.2z M31.5,63.9c-0.8,0-1.4,0.3-1.8,0.9
				c-0.5,0.6-0.7,1.3-0.7,2.3c0,1,0.2,1.7,0.7,2.3c0.5,0.6,1.1,0.8,1.8,0.8c0.8,0,1.4-0.3,1.8-0.8c0.4-0.6,0.7-1.3,0.7-2.3
				c0-1-0.2-1.8-0.6-2.4C32.8,64.2,32.2,63.9,31.5,63.9z M43.7,72h-5.8v-9.8H40v8h3.6V72z M50.8,72H45v-9.8h2.2v8h3.6V72z M56,72
				v-9.8h3.5c3.5,0,5.2,1.6,5.2,4.8c0,1.5-0.5,2.7-1.4,3.7c-0.9,0.9-2.2,1.4-3.8,1.4H56z M58.2,64v6.2h1.1c1,0,1.7-0.3,2.2-0.9
				c0.5-0.6,0.8-1.4,0.8-2.3c0-0.9-0.3-1.7-0.8-2.2c-0.5-0.5-1.3-0.8-2.3-0.8H58.2z M70.5,72.2c-1.4,0-2.5-0.5-3.4-1.4
				c-0.9-0.9-1.3-2.1-1.3-3.6c0-1.5,0.4-2.8,1.3-3.8c0.9-1,2.1-1.4,3.6-1.4c1.4,0,2.5,0.5,3.4,1.4c0.9,0.9,1.3,2.1,1.3,3.6
				c0,1.5-0.4,2.8-1.3,3.7C73.1,71.7,71.9,72.2,70.5,72.2z M70.6,63.9c-0.8,0-1.4,0.3-1.8,0.9c-0.5,0.6-0.7,1.3-0.7,2.3
				c0,1,0.2,1.7,0.7,2.3s1.1,0.8,1.8,0.8c0.8,0,1.4-0.3,1.8-0.8c0.4-0.6,0.7-1.3,0.7-2.3c0-1-0.2-1.8-0.6-2.4
				C71.9,64.2,71.3,63.9,70.6,63.9z M89.8,62.2L87.2,72h-2.4l-1.6-6.3C83.1,65.4,83,65,83,64.6h0c0,0.4-0.1,0.8-0.2,1.1L81.1,72
				h-2.5L76,62.2h2.4l1.4,6.5c0.1,0.3,0.1,0.7,0.1,1.1h0c0-0.4,0.1-0.7,0.2-1.1l1.8-6.5h2.4l1.6,6.6c0.1,0.2,0.1,0.6,0.2,1.1h0
				c0-0.4,0.1-0.7,0.1-1.1l1.4-6.5H89.8z M99.9,72h-2.2l-4-6.2c-0.2-0.4-0.4-0.6-0.5-0.8h0c0,0.3,0.1,0.9,0.1,1.6V72h-2.1v-9.8h2.4
				l3.9,6c0.2,0.3,0.3,0.5,0.5,0.8h0c0-0.2-0.1-0.7-0.1-1.3v-5.4h2.1V72z"/>
		</g>
	</g>
</g>
</svg>
